<mxfile host="app.diagrams.net" modified="2024-05-08T13:13:43.420Z" agent="Mozilla/5.0 (Windows NT 10.0; Win64; x64) AppleWebKit/537.36 (KHTML, like Gecko) Chrome/124.0.0.0 Safari/537.36" version="24.3.0" etag="1_PmXmRRP4gzQtnJHV65" type="github">
  <diagram name="Страница — 1" id="HYxu92c2V4cXzXMt9jeX">
    <mxGraphModel>
      <root>
        <mxCell id="0" />
        <mxCell id="1" parent="0" />
      </root>
    </mxGraphModel>
  </diagram>
</mxfile>
